  0
SECTION
  2
HEADER
  9
$ACADVER
  1
AC1009
  9
$EXTMIN
 10
0.0
 20
0.0
 30
0.0
  9
$EXTMAX
 10
1000.0
 20
1000.0
 30
0.0
  9
$FILLMODE
 70
 0
  9
$SPLFRAME
 70
 1
  0
ENDSEC
  0
SECTION
  2
TABLES
  0
TABLE
  2
LAYER
 70
1
  0
LAYER
  2
0
 70
     0
 62
     7
  6
CONTINUOUS
  0
ENDTAB
  0
ENDSEC
  0
SECTION
  2
ENTITIES
  0
LINE
  8
0
 62
     0
 10
293.846
 20
105.343
 30
0.0
 11
294.002
 21
105.337
 31
0.0
  0
LINE
  8
0
 62
     0
 10
294.002
 20
105.337
 30
0.0
 11
294.157
 21
105.319
 31
0.0
  0
LINE
  8
0
 62
     0
 10
294.157
 20
105.319
 30
0.0
 11
294.312
 21
105.288
 31
0.0
  0
LINE
  8
0
 62
     0
 10
294.312
 20
105.288
 30
0.0
 11
294.463
 21
105.246
 31
0.0
  0
LINE
  8
0
 62
     0
 10
294.463
 20
105.246
 30
0.0
 11
294.611
 21
105.191
 31
0.0
  0
LINE
  8
0
 62
     0
 10
294.611
 20
105.191
 30
0.0
 11
294.753
 21
105.126
 31
0.0
  0
LINE
  8
0
 62
     0
 10
294.753
 20
105.126
 30
0.0
 11
294.889
 21
105.049
 31
0.0
  0
LINE
  8
0
 62
     0
 10
294.889
 20
105.049
 30
0.0
 11
295.021
 21
104.962
 31
0.0
  0
LINE
  8
0
 62
     0
 10
295.021
 20
104.962
 30
0.0
 11
295.144
 21
104.865
 31
0.0
  0
LINE
  8
0
 62
     0
 10
295.144
 20
104.865
 30
0.0
 11
295.26
 21
104.758
 31
0.0
  0
LINE
  8
0
 62
     0
 10
295.26
 20
104.758
 30
0.0
 11
295.366
 21
104.643
 31
0.0
  0
LINE
  8
0
 62
     0
 10
295.366
 20
104.643
 30
0.0
 11
295.464
 21
104.519
 31
0.0
  0
LINE
  8
0
 62
     0
 10
295.464
 20
104.519
 30
0.0
 11
295.551
 21
104.388
 31
0.0
  0
LINE
  8
0
 62
     0
 10
295.551
 20
104.388
 30
0.0
 11
295.628
 21
104.251
 31
0.0
  0
LINE
  8
0
 62
     0
 10
295.628
 20
104.251
 30
0.0
 11
295.693
 21
104.109
 31
0.0
  0
LINE
  8
0
 62
     0
 10
295.693
 20
104.109
 30
0.0
 11
295.748
 21
103.962
 31
0.0
  0
LINE
  8
0
 62
     0
 10
295.748
 20
103.962
 30
0.0
 11
295.79
 21
103.811
 31
0.0
  0
LINE
  8
0
 62
     0
 10
295.79
 20
103.811
 30
0.0
 11
295.821
 21
103.656
 31
0.0
  0
LINE
  8
0
 62
     0
 10
295.821
 20
103.656
 30
0.0
 11
295.839
 21
103.5
 31
0.0
  0
LINE
  8
0
 62
     0
 10
295.839
 20
103.5
 30
0.0
 11
295.845
 21
103.343
 31
0.0
  0
LINE
  8
0
 62
     0
 10
295.845
 20
103.343
 30
0.0
 11
295.845
 21
2.09324
 31
0.0
  0
LINE
  8
0
 62
     0
 10
295.845
 20
2.09324
 30
0.0
 11
295.839
 21
1.93614
 31
0.0
  0
LINE
  8
0
 62
     0
 10
295.839
 20
1.93614
 30
0.0
 11
295.821
 21
1.78043
 31
0.0
  0
LINE
  8
0
 62
     0
 10
295.821
 20
1.78043
 30
0.0
 11
295.79
 21
1.62609
 31
0.0
  0
LINE
  8
0
 62
     0
 10
295.79
 20
1.62609
 30
0.0
 11
295.748
 21
1.4745
 31
0.0
  0
LINE
  8
0
 62
     0
 10
295.748
 20
1.4745
 30
0.0
 11
295.693
 21
1.32705
 31
0.0
  0
LINE
  8
0
 62
     0
 10
295.693
 20
1.32705
 30
0.0
 11
295.628
 21
1.18511
 31
0.0
  0
LINE
  8
0
 62
     0
 10
295.628
 20
1.18511
 30
0.0
 11
295.551
 21
1.04869
 31
0.0
  0
LINE
  8
0
 62
     0
 10
295.551
 20
1.04869
 30
0.0
 11
295.464
 21
0.917773
 31
0.0
  0
LINE
  8
0
 62
     0
 10
295.464
 20
0.917773
 30
0.0
 11
295.366
 21
0.79375
 31
0.0
  0
LINE
  8
0
 62
     0
 10
295.366
 20
0.79375
 30
0.0
 11
295.26
 21
0.677997
 31
0.0
  0
LINE
  8
0
 62
     0
 10
295.26
 20
0.677997
 30
0.0
 11
295.144
 21
0.571885
 31
0.0
  0
LINE
  8
0
 62
     0
 10
295.144
 20
0.571885
 30
0.0
 11
295.021
 21
0.474045
 31
0.0
  0
LINE
  8
0
 62
     0
 10
295.021
 20
0.474045
 30
0.0
 11
294.889
 21
0.38723
 31
0.0
  0
LINE
  8
0
 62
     0
 10
294.889
 20
0.38723
 30
0.0
 11
294.753
 21
0.310059
 31
0.0
  0
LINE
  8
0
 62
     0
 10
294.753
 20
0.310059
 30
0.0
 11
294.611
 21
0.245291
 31
0.0
  0
LINE
  8
0
 62
     0
 10
294.611
 20
0.245291
 30
0.0
 11
294.463
 21
0.190169
 31
0.0
  0
LINE
  8
0
 62
     0
 10
294.463
 20
0.190169
 30
0.0
 11
294.312
 21
0.14745
 31
0.0
  0
LINE
  8
0
 62
     0
 10
294.312
 20
0.14745
 30
0.0
 11
294.157
 21
0.117133
 31
0.0
  0
LINE
  8
0
 62
     0
 10
294.157
 20
0.117133
 30
0.0
 11
294.002
 21
0.0992188
 31
0.0
  0
LINE
  8
0
 62
     0
 10
294.002
 20
0.0992188
 30
0.0
 11
293.846
 21
0.0937066
 31
0.0
  0
LINE
  8
0
 62
     0
 10
293.846
 20
0.0937066
 30
0.0
 11
2.09462
 21
0.0937066
 31
0.0
  0
LINE
  8
0
 62
     0
 10
2.09462
 20
0.0937066
 30
0.0
 11
1.93752
 21
0.0992188
 31
0.0
  0
LINE
  8
0
 62
     0
 10
1.93752
 20
0.0992188
 30
0.0
 11
1.7818
 21
0.117133
 31
0.0
  0
LINE
  8
0
 62
     0
 10
1.7818
 20
0.117133
 30
0.0
 11
1.62746
 21
0.14745
 31
0.0
  0
LINE
  8
0
 62
     0
 10
1.62746
 20
0.14745
 30
0.0
 11
1.47588
 21
0.190169
 31
0.0
  0
LINE
  8
0
 62
     0
 10
1.47588
 20
0.190169
 30
0.0
 11
1.32843
 21
0.245291
 31
0.0
  0
LINE
  8
0
 62
     0
 10
1.32843
 20
0.245291
 30
0.0
 11
1.18649
 21
0.310059
 31
0.0
  0
LINE
  8
0
 62
     0
 10
1.18649
 20
0.310059
 30
0.0
 11
1.05006
 21
0.38723
 31
0.0
  0
LINE
  8
0
 62
     0
 10
1.05006
 20
0.38723
 30
0.0
 11
0.919152
 21
0.474045
 31
0.0
  0
LINE
  8
0
 62
     0
 10
0.919152
 20
0.474045
 30
0.0
 11
0.795129
 21
0.571885
 31
0.0
  0
LINE
  8
0
 62
     0
 10
0.795129
 20
0.571885
 30
0.0
 11
0.679372
 21
0.677997
 31
0.0
  0
LINE
  8
0
 62
     0
 10
0.679372
 20
0.677997
 30
0.0
 11
0.573264
 21
0.79375
 31
0.0
  0
LINE
  8
0
 62
     0
 10
0.573264
 20
0.79375
 30
0.0
 11
0.475424
 21
0.917773
 31
0.0
  0
LINE
  8
0
 62
     0
 10
0.475424
 20
0.917773
 30
0.0
 11
0.388606
 21
1.04869
 31
0.0
  0
LINE
  8
0
 62
     0
 10
0.388606
 20
1.04869
 30
0.0
 11
0.311437
 21
1.18511
 31
0.0
  0
LINE
  8
0
 62
     0
 10
0.311437
 20
1.18511
 30
0.0
 11
0.246669
 21
1.32705
 31
0.0
  0
LINE
  8
0
 62
     0
 10
0.246669
 20
1.32705
 30
0.0
 11
0.191547
 21
1.4745
 31
0.0
  0
LINE
  8
0
 62
     0
 10
0.191547
 20
1.4745
 30
0.0
 11
0.150206
 21
1.62609
 31
0.0
  0
LINE
  8
0
 62
     0
 10
0.150206
 20
1.62609
 30
0.0
 11
0.118511
 21
1.78043
 31
0.0
  0
LINE
  8
0
 62
     0
 10
0.118511
 20
1.78043
 30
0.0
 11
0.100597
 21
1.93614
 31
0.0
  0
LINE
  8
0
 62
     0
 10
0.100597
 20
1.93614
 30
0.0
 11
0.0937066
 21
2.09186
 31
0.0
  0
LINE
  8
0
 62
     0
 10
0.0937066
 20
2.09186
 30
0.0
 11
0.0950846
 21
103.343
 31
0.0
  0
LINE
  8
0
 62
     0
 10
0.0950846
 20
103.343
 30
0.0
 11
0.100597
 21
103.5
 31
0.0
  0
LINE
  8
0
 62
     0
 10
0.100597
 20
103.5
 30
0.0
 11
0.118511
 21
103.656
 31
0.0
  0
LINE
  8
0
 62
     0
 10
0.118511
 20
103.656
 30
0.0
 11
0.150206
 21
103.811
 31
0.0
  0
LINE
  8
0
 62
     0
 10
0.150206
 20
103.811
 30
0.0
 11
0.191547
 21
103.962
 31
0.0
  0
LINE
  8
0
 62
     0
 10
0.191547
 20
103.962
 30
0.0
 11
0.246669
 21
104.109
 31
0.0
  0
LINE
  8
0
 62
     0
 10
0.246669
 20
104.109
 30
0.0
 11
0.311437
 21
104.251
 31
0.0
  0
LINE
  8
0
 62
     0
 10
0.311437
 20
104.251
 30
0.0
 11
0.388606
 21
104.388
 31
0.0
  0
LINE
  8
0
 62
     0
 10
0.388606
 20
104.388
 30
0.0
 11
0.475424
 21
104.519
 31
0.0
  0
LINE
  8
0
 62
     0
 10
0.475424
 20
104.519
 30
0.0
 11
0.573264
 21
104.643
 31
0.0
  0
LINE
  8
0
 62
     0
 10
0.573264
 20
104.643
 30
0.0
 11
0.679372
 21
104.758
 31
0.0
  0
LINE
  8
0
 62
     0
 10
0.679372
 20
104.758
 30
0.0
 11
0.795129
 21
104.865
 31
0.0
  0
LINE
  8
0
 62
     0
 10
0.795129
 20
104.865
 30
0.0
 11
0.919152
 21
104.962
 31
0.0
  0
LINE
  8
0
 62
     0
 10
0.919152
 20
104.962
 30
0.0
 11
1.05006
 21
105.049
 31
0.0
  0
LINE
  8
0
 62
     0
 10
1.05006
 20
105.049
 30
0.0
 11
1.18649
 21
105.126
 31
0.0
  0
LINE
  8
0
 62
     0
 10
1.18649
 20
105.126
 30
0.0
 11
1.32843
 21
105.191
 31
0.0
  0
LINE
  8
0
 62
     0
 10
1.32843
 20
105.191
 30
0.0
 11
1.47588
 21
105.246
 31
0.0
  0
LINE
  8
0
 62
     0
 10
1.47588
 20
105.246
 30
0.0
 11
1.62746
 21
105.288
 31
0.0
  0
LINE
  8
0
 62
     0
 10
1.62746
 20
105.288
 30
0.0
 11
1.7818
 21
105.319
 31
0.0
  0
LINE
  8
0
 62
     0
 10
1.7818
 20
105.319
 30
0.0
 11
1.93752
 21
105.337
 31
0.0
  0
LINE
  8
0
 62
     0
 10
1.93752
 20
105.337
 30
0.0
 11
2.09462
 21
105.344
 31
0.0
  0
LINE
  8
0
 62
     0
 10
2.09462
 20
105.344
 30
0.0
 11
293.846
 21
105.343
 31
0.0
  0
LINE
  8
0
 62
     0
 10
293.036
 20
3.54432
 30
0.0
 11
292.757
 21
3.40238
 31
0.0
  0
LINE
  8
0
 62
     0
 10
292.757
 20
3.40238
 30
0.0
 11
292.535
 21
3.18051
 31
0.0
  0
LINE
  8
0
 62
     0
 10
292.535
 20
3.18051
 30
0.0
 11
292.394
 21
2.90215
 31
0.0
  0
LINE
  8
0
 62
     0
 10
292.394
 20
2.90215
 30
0.0
 11
292.345
 21
2.59347
 31
0.0
  0
LINE
  8
0
 62
     0
 10
292.345
 20
2.59347
 30
0.0
 11
292.394
 21
2.28341
 31
0.0
  0
LINE
  8
0
 62
     0
 10
292.394
 20
2.28341
 30
0.0
 11
292.535
 21
2.00504
 31
0.0
  0
LINE
  8
0
 62
     0
 10
292.535
 20
2.00504
 30
0.0
 11
292.757
 21
1.78318
 31
0.0
  0
LINE
  8
0
 62
     0
 10
292.757
 20
1.78318
 30
0.0
 11
293.036
 21
1.64124
 31
0.0
  0
LINE
  8
0
 62
     0
 10
293.036
 20
1.64124
 30
0.0
 11
293.346
 21
1.59301
 31
0.0
  0
LINE
  8
0
 62
     0
 10
293.346
 20
1.59301
 30
0.0
 11
293.654
 21
1.64124
 31
0.0
  0
LINE
  8
0
 62
     0
 10
293.654
 20
1.64124
 30
0.0
 11
293.933
 21
1.78318
 31
0.0
  0
LINE
  8
0
 62
     0
 10
293.933
 20
1.78318
 30
0.0
 11
294.155
 21
2.00504
 31
0.0
  0
LINE
  8
0
 62
     0
 10
294.155
 20
2.00504
 30
0.0
 11
294.297
 21
2.28341
 31
0.0
  0
LINE
  8
0
 62
     0
 10
294.297
 20
2.28341
 30
0.0
 11
294.346
 21
2.59347
 31
0.0
  0
LINE
  8
0
 62
     0
 10
294.346
 20
2.59347
 30
0.0
 11
294.297
 21
2.90215
 31
0.0
  0
LINE
  8
0
 62
     0
 10
294.297
 20
2.90215
 30
0.0
 11
294.155
 21
3.18051
 31
0.0
  0
LINE
  8
0
 62
     0
 10
294.155
 20
3.18051
 30
0.0
 11
293.933
 21
3.40238
 31
0.0
  0
LINE
  8
0
 62
     0
 10
293.933
 20
3.40238
 30
0.0
 11
293.654
 21
3.54432
 31
0.0
  0
LINE
  8
0
 62
     0
 10
293.654
 20
3.54432
 30
0.0
 11
293.346
 21
3.59255
 31
0.0
  0
LINE
  8
0
 62
     0
 10
293.346
 20
3.59255
 30
0.0
 11
293.036
 21
3.54432
 31
0.0
  0
LINE
  8
0
 62
     0
 10
196.118
 20
3.54432
 30
0.0
 11
195.841
 21
3.40238
 31
0.0
  0
LINE
  8
0
 62
     0
 10
195.841
 20
3.40238
 30
0.0
 11
195.62
 21
3.18051
 31
0.0
  0
LINE
  8
0
 62
     0
 10
195.62
 20
3.18051
 30
0.0
 11
195.476
 21
2.90215
 31
0.0
  0
LINE
  8
0
 62
     0
 10
195.476
 20
2.90215
 30
0.0
 11
195.429
 21
2.59347
 31
0.0
  0
LINE
  8
0
 62
     0
 10
195.429
 20
2.59347
 30
0.0
 11
195.476
 21
2.28341
 31
0.0
  0
LINE
  8
0
 62
     0
 10
195.476
 20
2.28341
 30
0.0
 11
195.62
 21
2.00504
 31
0.0
  0
LINE
  8
0
 62
     0
 10
195.62
 20
2.00504
 30
0.0
 11
195.841
 21
1.78318
 31
0.0
  0
LINE
  8
0
 62
     0
 10
195.841
 20
1.78318
 30
0.0
 11
196.118
 21
1.64124
 31
0.0
  0
LINE
  8
0
 62
     0
 10
196.118
 20
1.64124
 30
0.0
 11
196.428
 21
1.59301
 31
0.0
  0
LINE
  8
0
 62
     0
 10
196.428
 20
1.59301
 30
0.0
 11
196.739
 21
1.64124
 31
0.0
  0
LINE
  8
0
 62
     0
 10
196.739
 20
1.64124
 30
0.0
 11
197.015
 21
1.78318
 31
0.0
  0
LINE
  8
0
 62
     0
 10
197.015
 20
1.78318
 30
0.0
 11
197.237
 21
2.00504
 31
0.0
  0
LINE
  8
0
 62
     0
 10
197.237
 20
2.00504
 30
0.0
 11
197.379
 21
2.28341
 31
0.0
  0
LINE
  8
0
 62
     0
 10
197.379
 20
2.28341
 30
0.0
 11
197.429
 21
2.59347
 31
0.0
  0
LINE
  8
0
 62
     0
 10
197.429
 20
2.59347
 30
0.0
 11
197.379
 21
2.90215
 31
0.0
  0
LINE
  8
0
 62
     0
 10
197.379
 20
2.90215
 30
0.0
 11
197.237
 21
3.18051
 31
0.0
  0
LINE
  8
0
 62
     0
 10
197.237
 20
3.18051
 30
0.0
 11
197.015
 21
3.40238
 31
0.0
  0
LINE
  8
0
 62
     0
 10
197.015
 20
3.40238
 30
0.0
 11
196.739
 21
3.54432
 31
0.0
  0
LINE
  8
0
 62
     0
 10
196.739
 20
3.54432
 30
0.0
 11
196.428
 21
3.59255
 31
0.0
  0
LINE
  8
0
 62
     0
 10
196.428
 20
3.59255
 30
0.0
 11
196.118
 21
3.54432
 31
0.0
  0
LINE
  8
0
 62
     0
 10
99.2022
 20
3.54432
 30
0.0
 11
98.9238
 21
3.40238
 31
0.0
  0
LINE
  8
0
 62
     0
 10
98.9238
 20
3.40238
 30
0.0
 11
98.7019
 21
3.18051
 31
0.0
  0
LINE
  8
0
 62
     0
 10
98.7019
 20
3.18051
 30
0.0
 11
98.5601
 21
2.90215
 31
0.0
  0
LINE
  8
0
 62
     0
 10
98.5601
 20
2.90215
 30
0.0
 11
98.5118
 21
2.59347
 31
0.0
  0
LINE
  8
0
 62
     0
 10
98.5118
 20
2.59347
 30
0.0
 11
98.5601
 21
2.28341
 31
0.0
  0
LINE
  8
0
 62
     0
 10
98.5601
 20
2.28341
 30
0.0
 11
98.7019
 21
2.00504
 31
0.0
  0
LINE
  8
0
 62
     0
 10
98.7019
 20
2.00504
 30
0.0
 11
98.9238
 21
1.78318
 31
0.0
  0
LINE
  8
0
 62
     0
 10
98.9238
 20
1.78318
 30
0.0
 11
99.2022
 21
1.64124
 31
0.0
  0
LINE
  8
0
 62
     0
 10
99.2022
 20
1.64124
 30
0.0
 11
99.5123
 21
1.59301
 31
0.0
  0
LINE
  8
0
 62
     0
 10
99.5123
 20
1.59301
 30
0.0
 11
99.8209
 21
1.64124
 31
0.0
  0
LINE
  8
0
 62
     0
 10
99.8209
 20
1.64124
 30
0.0
 11
100.099
 21
1.78318
 31
0.0
  0
LINE
  8
0
 62
     0
 10
100.099
 20
1.78318
 30
0.0
 11
100.321
 21
2.00504
 31
0.0
  0
LINE
  8
0
 62
     0
 10
100.321
 20
2.00504
 30
0.0
 11
100.463
 21
2.28341
 31
0.0
  0
LINE
  8
0
 62
     0
 10
100.463
 20
2.28341
 30
0.0
 11
100.511
 21
2.59347
 31
0.0
  0
LINE
  8
0
 62
     0
 10
100.511
 20
2.59347
 30
0.0
 11
100.463
 21
2.90215
 31
0.0
  0
LINE
  8
0
 62
     0
 10
100.463
 20
2.90215
 30
0.0
 11
100.321
 21
3.18051
 31
0.0
  0
LINE
  8
0
 62
     0
 10
100.321
 20
3.18051
 30
0.0
 11
100.099
 21
3.40238
 31
0.0
  0
LINE
  8
0
 62
     0
 10
100.099
 20
3.40238
 30
0.0
 11
99.8209
 21
3.54432
 31
0.0
  0
LINE
  8
0
 62
     0
 10
99.8209
 20
3.54432
 30
0.0
 11
99.5123
 21
3.59255
 31
0.0
  0
LINE
  8
0
 62
     0
 10
99.5123
 20
3.59255
 30
0.0
 11
99.2022
 21
3.54432
 31
0.0
  0
LINE
  8
0
 62
     0
 10
2.28479
 20
3.54432
 30
0.0
 11
2.00642
 21
3.40238
 31
0.0
  0
LINE
  8
0
 62
     0
 10
2.00642
 20
3.40238
 30
0.0
 11
1.78456
 21
3.18051
 31
0.0
  0
LINE
  8
0
 62
     0
 10
1.78456
 20
3.18051
 30
0.0
 11
1.64262
 21
2.90215
 31
0.0
  0
LINE
  8
0
 62
     0
 10
1.64262
 20
2.90215
 30
0.0
 11
1.59439
 21
2.59347
 31
0.0
  0
LINE
  8
0
 62
     0
 10
1.59439
 20
2.59347
 30
0.0
 11
1.64262
 21
2.28341
 31
0.0
  0
LINE
  8
0
 62
     0
 10
1.64262
 20
2.28341
 30
0.0
 11
1.78456
 21
2.00504
 31
0.0
  0
LINE
  8
0
 62
     0
 10
1.78456
 20
2.00504
 30
0.0
 11
2.00642
 21
1.78318
 31
0.0
  0
LINE
  8
0
 62
     0
 10
2.00642
 20
1.78318
 30
0.0
 11
2.28479
 21
1.64124
 31
0.0
  0
LINE
  8
0
 62
     0
 10
2.28479
 20
1.64124
 30
0.0
 11
2.59347
 21
1.59301
 31
0.0
  0
LINE
  8
0
 62
     0
 10
2.59347
 20
1.59301
 30
0.0
 11
2.90353
 21
1.64124
 31
0.0
  0
LINE
  8
0
 62
     0
 10
2.90353
 20
1.64124
 30
0.0
 11
3.18189
 21
1.78318
 31
0.0
  0
LINE
  8
0
 62
     0
 10
3.18189
 20
1.78318
 30
0.0
 11
3.40376
 21
2.00504
 31
0.0
  0
LINE
  8
0
 62
     0
 10
3.40376
 20
2.00504
 30
0.0
 11
3.5457
 21
2.28341
 31
0.0
  0
LINE
  8
0
 62
     0
 10
3.5457
 20
2.28341
 30
0.0
 11
3.5953
 21
2.59347
 31
0.0
  0
LINE
  8
0
 62
     0
 10
3.5953
 20
2.59347
 30
0.0
 11
3.5457
 21
2.90215
 31
0.0
  0
LINE
  8
0
 62
     0
 10
3.5457
 20
2.90215
 30
0.0
 11
3.40376
 21
3.18051
 31
0.0
  0
LINE
  8
0
 62
     0
 10
3.40376
 20
3.18051
 30
0.0
 11
3.18189
 21
3.40238
 31
0.0
  0
LINE
  8
0
 62
     0
 10
3.18189
 20
3.40238
 30
0.0
 11
2.90353
 21
3.54432
 31
0.0
  0
LINE
  8
0
 62
     0
 10
2.90353
 20
3.54432
 30
0.0
 11
2.59485
 21
3.59255
 31
0.0
  0
LINE
  8
0
 62
     0
 10
2.59485
 20
3.59255
 30
0.0
 11
2.28479
 21
3.54432
 31
0.0
  0
LINE
  8
0
 62
     0
 10
38.5921
 20
103.814
 30
0.0
 11
38.5135
 21
103.806
 31
0.0
  0
LINE
  8
0
 62
     0
 10
38.5135
 20
103.806
 30
0.0
 11
38.4362
 21
103.79
 31
0.0
  0
LINE
  8
0
 62
     0
 10
38.4362
 20
103.79
 30
0.0
 11
38.3603
 21
103.769
 31
0.0
  0
LINE
  8
0
 62
     0
 10
38.3603
 20
103.769
 30
0.0
 11
38.2873
 21
103.741
 31
0.0
  0
LINE
  8
0
 62
     0
 10
38.2873
 20
103.741
 30
0.0
 11
38.2157
 21
103.709
 31
0.0
  0
LINE
  8
0
 62
     0
 10
38.2157
 20
103.709
 30
0.0
 11
38.1483
 21
103.671
 31
0.0
  0
LINE
  8
0
 62
     0
 10
38.1483
 20
103.671
 30
0.0
 11
38.082
 21
103.627
 31
0.0
  0
LINE
  8
0
 62
     0
 10
38.082
 20
103.627
 30
0.0
 11
38.0199
 21
103.577
 31
0.0
  0
LINE
  8
0
 62
     0
 10
38.0199
 20
103.577
 30
0.0
 11
37.9621
 21
103.525
 31
0.0
  0
LINE
  8
0
 62
     0
 10
37.9621
 20
103.525
 30
0.0
 11
37.9099
 21
103.467
 31
0.0
  0
LINE
  8
0
 62
     0
 10
37.9099
 20
103.467
 30
0.0
 11
37.8601
 21
103.407
 31
0.0
  0
LINE
  8
0
 62
     0
 10
37.8601
 20
103.407
 30
0.0
 11
37.816
 21
103.341
 31
0.0
  0
LINE
  8
0
 62
     0
 10
37.816
 20
103.341
 30
0.0
 11
37.779
 21
103.271
 31
0.0
  0
LINE
  8
0
 62
     0
 10
37.779
 20
103.271
 30
0.0
 11
37.7458
 21
103.201
 31
0.0
  0
LINE
  8
0
 62
     0
 10
37.7458
 20
103.201
 30
0.0
 11
37.7183
 21
103.127
 31
0.0
  0
LINE
  8
0
 62
     0
 10
37.7183
 20
103.127
 30
0.0
 11
37.6975
 21
103.051
 31
0.0
  0
LINE
  8
0
 62
     0
 10
37.6975
 20
103.051
 30
0.0
 11
37.6813
 21
102.974
 31
0.0
  0
LINE
  8
0
 62
     0
 10
37.6813
 20
102.974
 30
0.0
 11
37.6728
 21
102.897
 31
0.0
  0
LINE
  8
0
 62
     0
 10
37.6728
 20
102.897
 30
0.0
 11
37.67
 21
102.818
 31
0.0
  0
LINE
  8
0
 62
     0
 10
37.67
 20
102.818
 30
0.0
 11
37.6728
 21
102.739
 31
0.0
  0
LINE
  8
0
 62
     0
 10
37.6728
 20
102.739
 30
0.0
 11
37.6813
 21
102.663
 31
0.0
  0
LINE
  8
0
 62
     0
 10
37.6813
 20
102.663
 30
0.0
 11
37.6975
 21
102.585
 31
0.0
  0
LINE
  8
0
 62
     0
 10
37.6975
 20
102.585
 30
0.0
 11
37.7183
 21
102.509
 31
0.0
  0
LINE
  8
0
 62
     0
 10
37.7183
 20
102.509
 30
0.0
 11
37.7458
 21
102.435
 31
0.0
  0
LINE
  8
0
 62
     0
 10
37.7458
 20
102.435
 30
0.0
 11
37.779
 21
102.363
 31
0.0
  0
LINE
  8
0
 62
     0
 10
37.779
 20
102.363
 30
0.0
 11
37.816
 21
102.296
 31
0.0
  0
LINE
  8
0
 62
     0
 10
37.816
 20
102.296
 30
0.0
 11
37.8601
 21
102.23
 31
0.0
  0
LINE
  8
0
 62
     0
 10
37.8601
 20
102.23
 30
0.0
 11
37.9099
 21
102.17
 31
0.0
  0
LINE
  8
0
 62
     0
 10
37.9099
 20
102.17
 30
0.0
 11
37.9621
 21
102.111
 31
0.0
  0
LINE
  8
0
 62
     0
 10
37.9621
 20
102.111
 30
0.0
 11
38.0199
 21
102.058
 31
0.0
  0
LINE
  8
0
 62
     0
 10
38.0199
 20
102.058
 30
0.0
 11
38.082
 21
102.009
 31
0.0
  0
LINE
  8
0
 62
     0
 10
38.082
 20
102.009
 30
0.0
 11
38.1483
 21
101.965
 31
0.0
  0
LINE
  8
0
 62
     0
 10
38.1483
 20
101.965
 30
0.0
 11
38.2157
 21
101.927
 31
0.0
  0
LINE
  8
0
 62
     0
 10
38.2157
 20
101.927
 30
0.0
 11
38.2873
 21
101.894
 31
0.0
  0
LINE
  8
0
 62
     0
 10
38.2873
 20
101.894
 30
0.0
 11
38.3603
 21
101.867
 31
0.0
  0
LINE
  8
0
 62
     0
 10
38.3603
 20
101.867
 30
0.0
 11
38.4362
 21
101.847
 31
0.0
  0
LINE
  8
0
 62
     0
 10
38.4362
 20
101.847
 30
0.0
 11
38.5135
 21
101.83
 31
0.0
  0
LINE
  8
0
 62
     0
 10
38.5135
 20
101.83
 30
0.0
 11
38.5921
 21
101.82
 31
0.0
  0
LINE
  8
0
 62
     0
 10
38.5921
 20
101.82
 30
0.0
 11
38.669
 21
101.818
 31
0.0
  0
LINE
  8
0
 62
     0
 10
38.669
 20
101.818
 30
0.0
 11
38.7477
 21
101.82
 31
0.0
  0
LINE
  8
0
 62
     0
 10
38.7477
 20
101.82
 30
0.0
 11
38.8264
 21
101.83
 31
0.0
  0
LINE
  8
0
 62
     0
 10
38.8264
 20
101.83
 30
0.0
 11
38.9033
 21
101.847
 31
0.0
  0
LINE
  8
0
 62
     0
 10
38.9033
 20
101.847
 30
0.0
 11
38.9791
 21
101.867
 31
0.0
  0
LINE
  8
0
 62
     0
 10
38.9791
 20
101.867
 30
0.0
 11
39.0521
 21
101.894
 31
0.0
  0
LINE
  8
0
 62
     0
 10
39.0521
 20
101.894
 30
0.0
 11
39.1238
 21
101.927
 31
0.0
  0
LINE
  8
0
 62
     0
 10
39.1238
 20
101.927
 30
0.0
 11
39.1915
 21
101.965
 31
0.0
  0
LINE
  8
0
 62
     0
 10
39.1915
 20
101.965
 30
0.0
 11
39.2575
 21
102.009
 31
0.0
  0
LINE
  8
0
 62
     0
 10
39.2575
 20
102.009
 30
0.0
 11
39.3181
 21
102.058
 31
0.0
  0
LINE
  8
0
 62
     0
 10
39.3181
 20
102.058
 30
0.0
 11
39.376
 21
102.111
 31
0.0
  0
LINE
  8
0
 62
     0
 10
39.376
 20
102.111
 30
0.0
 11
39.43
 21
102.17
 31
0.0
  0
LINE
  8
0
 62
     0
 10
39.43
 20
102.17
 30
0.0
 11
39.4794
 21
102.23
 31
0.0
  0
LINE
  8
0
 62
     0
 10
39.4794
 20
102.23
 30
0.0
 11
39.522
 21
102.296
 31
0.0
  0
LINE
  8
0
 62
     0
 10
39.522
 20
102.296
 30
0.0
 11
39.5609
 21
102.363
 31
0.0
  0
LINE
  8
0
 62
     0
 10
39.5609
 20
102.363
 30
0.0
 11
39.5937
 21
102.435
 31
0.0
  0
LINE
  8
0
 62
     0
 10
39.5937
 20
102.435
 30
0.0
 11
39.6215
 21
102.509
 31
0.0
  0
LINE
  8
0
 62
     0
 10
39.6215
 20
102.509
 30
0.0
 11
39.642
 21
102.585
 31
0.0
  0
LINE
  8
0
 62
     0
 10
39.642
 20
102.585
 30
0.0
 11
39.6572
 21
102.663
 31
0.0
  0
LINE
  8
0
 62
     0
 10
39.6572
 20
102.663
 30
0.0
 11
39.6667
 21
102.739
 31
0.0
  0
LINE
  8
0
 62
     0
 10
39.6667
 20
102.739
 30
0.0
 11
39.6695
 21
102.818
 31
0.0
  0
LINE
  8
0
 62
     0
 10
39.6695
 20
102.818
 30
0.0
 11
39.6667
 21
102.897
 31
0.0
  0
LINE
  8
0
 62
     0
 10
39.6667
 20
102.897
 30
0.0
 11
39.6572
 21
102.974
 31
0.0
  0
LINE
  8
0
 62
     0
 10
39.6572
 20
102.974
 30
0.0
 11
39.642
 21
103.051
 31
0.0
  0
LINE
  8
0
 62
     0
 10
39.642
 20
103.051
 30
0.0
 11
39.6215
 21
103.127
 31
0.0
  0
LINE
  8
0
 62
     0
 10
39.6215
 20
103.127
 30
0.0
 11
39.5937
 21
103.201
 31
0.0
  0
LINE
  8
0
 62
     0
 10
39.5937
 20
103.201
 30
0.0
 11
39.5609
 21
103.271
 31
0.0
  0
LINE
  8
0
 62
     0
 10
39.5609
 20
103.271
 30
0.0
 11
39.522
 21
103.341
 31
0.0
  0
LINE
  8
0
 62
     0
 10
39.522
 20
103.341
 30
0.0
 11
39.4794
 21
103.407
 31
0.0
  0
LINE
  8
0
 62
     0
 10
39.4794
 20
103.407
 30
0.0
 11
39.43
 21
103.467
 31
0.0
  0
LINE
  8
0
 62
     0
 10
39.43
 20
103.467
 30
0.0
 11
39.376
 21
103.525
 31
0.0
  0
LINE
  8
0
 62
     0
 10
39.376
 20
103.525
 30
0.0
 11
39.3181
 21
103.577
 31
0.0
  0
LINE
  8
0
 62
     0
 10
39.3181
 20
103.577
 30
0.0
 11
39.2575
 21
103.627
 31
0.0
  0
LINE
  8
0
 62
     0
 10
39.2575
 20
103.627
 30
0.0
 11
39.1915
 21
103.671
 31
0.0
  0
LINE
  8
0
 62
     0
 10
39.1915
 20
103.671
 30
0.0
 11
39.1238
 21
103.709
 31
0.0
  0
LINE
  8
0
 62
     0
 10
39.1238
 20
103.709
 30
0.0
 11
39.0521
 21
103.741
 31
0.0
  0
LINE
  8
0
 62
     0
 10
39.0521
 20
103.741
 30
0.0
 11
38.9791
 21
103.769
 31
0.0
  0
LINE
  8
0
 62
     0
 10
38.9791
 20
103.769
 30
0.0
 11
38.9033
 21
103.79
 31
0.0
  0
LINE
  8
0
 62
     0
 10
38.9033
 20
103.79
 30
0.0
 11
38.8264
 21
103.806
 31
0.0
  0
LINE
  8
0
 62
     0
 10
38.8264
 20
103.806
 30
0.0
 11
38.7477
 21
103.814
 31
0.0
  0
LINE
  8
0
 62
     0
 10
38.7477
 20
103.814
 30
0.0
 11
38.669
 21
103.819
 31
0.0
  0
LINE
  8
0
 62
     0
 10
38.669
 20
103.819
 30
0.0
 11
38.5921
 21
103.814
 31
0.0
  0
LINE
  8
0
 62
     0
 10
99.2022
 20
103.795
 30
0.0
 11
98.9238
 21
103.653
 31
0.0
  0
LINE
  8
0
 62
     0
 10
98.9238
 20
103.653
 30
0.0
 11
98.7019
 21
103.431
 31
0.0
  0
LINE
  8
0
 62
     0
 10
98.7019
 20
103.431
 30
0.0
 11
98.5601
 21
103.153
 31
0.0
  0
LINE
  8
0
 62
     0
 10
98.5601
 20
103.153
 30
0.0
 11
98.5118
 21
102.844
 31
0.0
  0
LINE
  8
0
 62
     0
 10
98.5118
 20
102.844
 30
0.0
 11
98.5601
 21
102.534
 31
0.0
  0
LINE
  8
0
 62
     0
 10
98.5601
 20
102.534
 30
0.0
 11
98.7019
 21
102.256
 31
0.0
  0
LINE
  8
0
 62
     0
 10
98.7019
 20
102.256
 30
0.0
 11
98.9238
 21
102.034
 31
0.0
  0
LINE
  8
0
 62
     0
 10
98.9238
 20
102.034
 30
0.0
 11
99.2022
 21
101.892
 31
0.0
  0
LINE
  8
0
 62
     0
 10
99.2022
 20
101.892
 30
0.0
 11
99.5123
 21
101.843
 31
0.0
  0
LINE
  8
0
 62
     0
 10
99.5123
 20
101.843
 30
0.0
 11
99.8209
 21
101.892
 31
0.0
  0
LINE
  8
0
 62
     0
 10
99.8209
 20
101.892
 30
0.0
 11
100.099
 21
102.034
 31
0.0
  0
LINE
  8
0
 62
     0
 10
100.099
 20
102.034
 30
0.0
 11
100.321
 21
102.256
 31
0.0
  0
LINE
  8
0
 62
     0
 10
100.321
 20
102.256
 30
0.0
 11
100.463
 21
102.534
 31
0.0
  0
LINE
  8
0
 62
     0
 10
100.463
 20
102.534
 30
0.0
 11
100.511
 21
102.843
 31
0.0
  0
LINE
  8
0
 62
     0
 10
100.511
 20
102.843
 30
0.0
 11
100.463
 21
103.153
 31
0.0
  0
LINE
  8
0
 62
     0
 10
100.463
 20
103.153
 30
0.0
 11
100.321
 21
103.431
 31
0.0
  0
LINE
  8
0
 62
     0
 10
100.321
 20
103.431
 30
0.0
 11
100.099
 21
103.653
 31
0.0
  0
LINE
  8
0
 62
     0
 10
100.099
 20
103.653
 30
0.0
 11
99.8209
 21
103.795
 31
0.0
  0
LINE
  8
0
 62
     0
 10
99.8209
 20
103.795
 30
0.0
 11
99.5123
 21
103.843
 31
0.0
  0
LINE
  8
0
 62
     0
 10
99.5123
 20
103.843
 30
0.0
 11
99.2022
 21
103.795
 31
0.0
  0
LINE
  8
0
 62
     0
 10
196.118
 20
103.795
 30
0.0
 11
195.841
 21
103.653
 31
0.0
  0
LINE
  8
0
 62
     0
 10
195.841
 20
103.653
 30
0.0
 11
195.62
 21
103.431
 31
0.0
  0
LINE
  8
0
 62
     0
 10
195.62
 20
103.431
 30
0.0
 11
195.476
 21
103.153
 31
0.0
  0
LINE
  8
0
 62
     0
 10
195.476
 20
103.153
 30
0.0
 11
195.429
 21
102.844
 31
0.0
  0
LINE
  8
0
 62
     0
 10
195.429
 20
102.844
 30
0.0
 11
195.476
 21
102.534
 31
0.0
  0
LINE
  8
0
 62
     0
 10
195.476
 20
102.534
 30
0.0
 11
195.62
 21
102.256
 31
0.0
  0
LINE
  8
0
 62
     0
 10
195.62
 20
102.256
 30
0.0
 11
195.841
 21
102.034
 31
0.0
  0
LINE
  8
0
 62
     0
 10
195.841
 20
102.034
 30
0.0
 11
196.118
 21
101.892
 31
0.0
  0
LINE
  8
0
 62
     0
 10
196.118
 20
101.892
 30
0.0
 11
196.428
 21
101.843
 31
0.0
  0
LINE
  8
0
 62
     0
 10
196.428
 20
101.843
 30
0.0
 11
196.739
 21
101.892
 31
0.0
  0
LINE
  8
0
 62
     0
 10
196.739
 20
101.892
 30
0.0
 11
197.015
 21
102.034
 31
0.0
  0
LINE
  8
0
 62
     0
 10
197.015
 20
102.034
 30
0.0
 11
197.237
 21
102.256
 31
0.0
  0
LINE
  8
0
 62
     0
 10
197.237
 20
102.256
 30
0.0
 11
197.379
 21
102.534
 31
0.0
  0
LINE
  8
0
 62
     0
 10
197.379
 20
102.534
 30
0.0
 11
197.429
 21
102.843
 31
0.0
  0
LINE
  8
0
 62
     0
 10
197.429
 20
102.843
 30
0.0
 11
197.379
 21
103.153
 31
0.0
  0
LINE
  8
0
 62
     0
 10
197.379
 20
103.153
 30
0.0
 11
197.237
 21
103.431
 31
0.0
  0
LINE
  8
0
 62
     0
 10
197.237
 20
103.431
 30
0.0
 11
197.015
 21
103.653
 31
0.0
  0
LINE
  8
0
 62
     0
 10
197.015
 20
103.653
 30
0.0
 11
196.739
 21
103.795
 31
0.0
  0
LINE
  8
0
 62
     0
 10
196.739
 20
103.795
 30
0.0
 11
196.428
 21
103.843
 31
0.0
  0
LINE
  8
0
 62
     0
 10
196.428
 20
103.843
 30
0.0
 11
196.118
 21
103.795
 31
0.0
  0
LINE
  8
0
 62
     0
 10
293.036
 20
103.795
 30
0.0
 11
292.757
 21
103.653
 31
0.0
  0
LINE
  8
0
 62
     0
 10
292.757
 20
103.653
 30
0.0
 11
292.535
 21
103.431
 31
0.0
  0
LINE
  8
0
 62
     0
 10
292.535
 20
103.431
 30
0.0
 11
292.394
 21
103.153
 31
0.0
  0
LINE
  8
0
 62
     0
 10
292.394
 20
103.153
 30
0.0
 11
292.345
 21
102.844
 31
0.0
  0
LINE
  8
0
 62
     0
 10
292.345
 20
102.844
 30
0.0
 11
292.394
 21
102.534
 31
0.0
  0
LINE
  8
0
 62
     0
 10
292.394
 20
102.534
 30
0.0
 11
292.535
 21
102.256
 31
0.0
  0
LINE
  8
0
 62
     0
 10
292.535
 20
102.256
 30
0.0
 11
292.757
 21
102.034
 31
0.0
  0
LINE
  8
0
 62
     0
 10
292.757
 20
102.034
 30
0.0
 11
293.036
 21
101.892
 31
0.0
  0
LINE
  8
0
 62
     0
 10
293.036
 20
101.892
 30
0.0
 11
293.346
 21
101.843
 31
0.0
  0
LINE
  8
0
 62
     0
 10
293.346
 20
101.843
 30
0.0
 11
293.654
 21
101.892
 31
0.0
  0
LINE
  8
0
 62
     0
 10
293.654
 20
101.892
 30
0.0
 11
293.933
 21
102.034
 31
0.0
  0
LINE
  8
0
 62
     0
 10
293.933
 20
102.034
 30
0.0
 11
294.155
 21
102.256
 31
0.0
  0
LINE
  8
0
 62
     0
 10
294.155
 20
102.256
 30
0.0
 11
294.297
 21
102.534
 31
0.0
  0
LINE
  8
0
 62
     0
 10
294.297
 20
102.534
 30
0.0
 11
294.346
 21
102.843
 31
0.0
  0
LINE
  8
0
 62
     0
 10
294.346
 20
102.843
 30
0.0
 11
294.297
 21
103.153
 31
0.0
  0
LINE
  8
0
 62
     0
 10
294.297
 20
103.153
 30
0.0
 11
294.155
 21
103.431
 31
0.0
  0
LINE
  8
0
 62
     0
 10
294.155
 20
103.431
 30
0.0
 11
293.933
 21
103.653
 31
0.0
  0
LINE
  8
0
 62
     0
 10
293.933
 20
103.653
 30
0.0
 11
293.654
 21
103.795
 31
0.0
  0
LINE
  8
0
 62
     0
 10
293.654
 20
103.795
 30
0.0
 11
293.346
 21
103.843
 31
0.0
  0
LINE
  8
0
 62
     0
 10
293.346
 20
103.843
 30
0.0
 11
293.036
 21
103.795
 31
0.0
  0
LINE
  8
0
 62
     0
 10
2.28479
 20
103.795
 30
0.0
 11
2.00642
 21
103.653
 31
0.0
  0
LINE
  8
0
 62
     0
 10
2.00642
 20
103.653
 30
0.0
 11
1.78456
 21
103.431
 31
0.0
  0
LINE
  8
0
 62
     0
 10
1.78456
 20
103.431
 30
0.0
 11
1.64262
 21
103.153
 31
0.0
  0
LINE
  8
0
 62
     0
 10
1.64262
 20
103.153
 30
0.0
 11
1.59439
 21
102.844
 31
0.0
  0
LINE
  8
0
 62
     0
 10
1.59439
 20
102.844
 30
0.0
 11
1.64262
 21
102.534
 31
0.0
  0
LINE
  8
0
 62
     0
 10
1.64262
 20
102.534
 30
0.0
 11
1.78456
 21
102.256
 31
0.0
  0
LINE
  8
0
 62
     0
 10
1.78456
 20
102.256
 30
0.0
 11
2.00642
 21
102.034
 31
0.0
  0
LINE
  8
0
 62
     0
 10
2.00642
 20
102.034
 30
0.0
 11
2.28479
 21
101.892
 31
0.0
  0
LINE
  8
0
 62
     0
 10
2.28479
 20
101.892
 30
0.0
 11
2.59347
 21
101.843
 31
0.0
  0
LINE
  8
0
 62
     0
 10
2.59347
 20
101.843
 30
0.0
 11
2.90353
 21
101.892
 31
0.0
  0
LINE
  8
0
 62
     0
 10
2.90353
 20
101.892
 30
0.0
 11
3.18189
 21
102.034
 31
0.0
  0
LINE
  8
0
 62
     0
 10
3.18189
 20
102.034
 30
0.0
 11
3.40376
 21
102.256
 31
0.0
  0
LINE
  8
0
 62
     0
 10
3.40376
 20
102.256
 30
0.0
 11
3.5457
 21
102.534
 31
0.0
  0
LINE
  8
0
 62
     0
 10
3.5457
 20
102.534
 30
0.0
 11
3.5953
 21
102.843
 31
0.0
  0
LINE
  8
0
 62
     0
 10
3.5953
 20
102.843
 30
0.0
 11
3.5457
 21
103.153
 31
0.0
  0
LINE
  8
0
 62
     0
 10
3.5457
 20
103.153
 30
0.0
 11
3.40376
 21
103.431
 31
0.0
  0
LINE
  8
0
 62
     0
 10
3.40376
 20
103.431
 30
0.0
 11
3.18189
 21
103.653
 31
0.0
  0
LINE
  8
0
 62
     0
 10
3.18189
 20
103.653
 30
0.0
 11
2.90353
 21
103.795
 31
0.0
  0
LINE
  8
0
 62
     0
 10
2.90353
 20
103.795
 30
0.0
 11
2.59485
 21
103.843
 31
0.0
  0
LINE
  8
0
 62
     0
 10
2.59485
 20
103.843
 30
0.0
 11
2.28479
 21
103.795
 31
0.0
  0
ENDSEC
  0
EOF
